<svg xmlns="http://www.w3.org/2000/svg" width="56" height="56" viewBox="0 0 56 56">
  <g id="Group_361" data-name="Group 361" transform="translate(-1079 149)">
    <circle id="Ellipse_46" data-name="Ellipse 46" cx="28" cy="28" r="28" transform="translate(1079 -149)" fill="#015c80" opacity="0"/>
    <g id="Group_358" data-name="Group 358" transform="translate(-428.254 -143.747)">
      <path id="Path_84" data-name="Path 84" d="M139.335,19.823a1.107,1.107,0,0,1,1.076,1.135V31.491a1.949,1.949,0,0,1-1.9,2H122.308a1.949,1.949,0,0,1-1.9-2V20.952a1.107,1.107,0,0,1,1.072-1.134Z" transform="translate(1404.843 -0.522)" fill="none" stroke="#fff" stroke-linecap="round" stroke-width="2"/>
      <path id="Path_85" data-name="Path 85" d="M131.2,14.765V11.677a5.077,5.077,0,1,1,10.153,0v3.088" transform="translate(1398.979 6)" fill="none" stroke="#fff" stroke-linecap="round" stroke-width="2"/>
    </g>
    <g id="Group_362" data-name="Group 362" transform="translate(-464 -157)">
      <circle id="Ellipse_47" data-name="Ellipse 47" cx="4" cy="4" r="4" transform="translate(1578 27)" fill="#de0000"/>
    </g>
  </g>
</svg>
