<svg id="Component_8_1" data-name="Component 8 – 1" xmlns="http://www.w3.org/2000/svg" width="56" height="56" viewBox="0 0 56 56">
  <circle id="Ellipse_52" data-name="Ellipse 52" cx="28" cy="28" r="28" fill="#fff"/>
  <path id="Path_91" data-name="Path 91" d="M9.192-13.4A4.706,4.706,0,0,0,4.479-8.691,4.706,4.706,0,0,0,9.192-3.978a4.706,4.706,0,0,0,4.713-4.713A4.706,4.706,0,0,0,9.192-13.4Zm0,7.777A3.07,3.07,0,0,1,6.128-8.691a3.067,3.067,0,0,1,3.064-3.064,3.067,3.067,0,0,1,3.064,3.064A3.07,3.07,0,0,1,9.192-5.627ZM15.2-13.6a1.1,1.1,0,0,1-1.1,1.1A1.1,1.1,0,0,1,13-13.6a1.1,1.1,0,0,1,1.1-1.1A1.1,1.1,0,0,1,15.2-13.6Zm3.122,1.116a5.44,5.44,0,0,0-1.485-3.852,5.476,5.476,0,0,0-3.852-1.485c-1.518-.086-6.067-.086-7.584,0a5.468,5.468,0,0,0-3.852,1.481A5.458,5.458,0,0,0,.061-12.485c-.086,1.518-.086,6.067,0,7.584A5.44,5.44,0,0,0,1.546-1.049,5.483,5.483,0,0,0,5.4.435c1.518.086,6.067.086,7.584,0a5.44,5.44,0,0,0,3.852-1.485A5.476,5.476,0,0,0,18.319-4.9c.086-1.518.086-6.063,0-7.58ZM16.358-3.273a3.1,3.1,0,0,1-1.747,1.747c-1.21.48-4.081.369-5.419.369s-4.213.107-5.419-.369A3.1,3.1,0,0,1,2.026-3.273c-.48-1.21-.369-4.081-.369-5.419S1.55-12.9,2.026-14.11a3.1,3.1,0,0,1,1.747-1.747c1.21-.48,4.081-.369,5.419-.369s4.213-.107,5.419.369a3.1,3.1,0,0,1,1.747,1.747c.48,1.21.369,4.081.369,5.419S16.838-4.479,16.358-3.273Z" transform="translate(19 36)"/>
</svg>
