<svg xmlns="http://www.w3.org/2000/svg" width="53.312" height="53.247" viewBox="0 0 53.312 53.247">
  <g id="Group_108" data-name="Group 108" transform="translate(-0.169)">
    <g id="Group_113" data-name="Group 113" transform="translate(0.169 2)">
      <path id="Path_64" data-name="Path 64" d="M22.527,15.076a1.135,1.135,0,0,0-1.135,1.135V27.4a1.135,1.135,0,0,0,1.135,1.135h6.1a1.136,1.136,0,0,0,0-2.271H23.662V16.211a1.135,1.135,0,0,0-1.135-1.135" transform="translate(2.524 -0.341)" fill="#015c80"/>
      <path id="Path_65" data-name="Path 65" d="M12.12,25.649A11.967,11.967,0,0,0,.169,37.612c.645,15.858,23.276,15.84,23.915,0A11.969,11.969,0,0,0,12.12,25.649m.41,10.9c1.4.512,3.659,2.06,3.288,4.555a3.24,3.24,0,0,1-2.342,2.623c.064.863-.045,1.815-1.126,1.856-1.047-.039-1.214-.942-1.139-1.805a4.893,4.893,0,0,1-2.738-1.945,1.129,1.129,0,0,1,1.842-1.3c.891,1.273,2.834,1.618,3.264.243.192-1.279-1.83-2.1-1.856-2.1-1.394-.525-3.659-2.074-3.288-4.568a3.279,3.279,0,0,1,2.585-2.7l.192-.038v-.614a1.133,1.133,0,0,1,2.265,0v.819a4.907,4.907,0,0,1,2.3,1.8,1.135,1.135,0,0,1-1.856,1.3,2.315,2.315,0,0,0-2.367-1.062,1.06,1.06,0,0,0-.883.818c-.192,1.293,1.83,2.1,1.856,2.112" transform="translate(-0.169 1.001)" fill="#de0000"/>
      <path id="Path_66" data-name="Path 66" d="M26.624,51.247A24.624,24.624,0,1,0,2,26.623" transform="translate(0.063 -2)" fill="none" stroke="#015c80" stroke-linecap="round" stroke-width="4"/>
    </g>
  </g>
</svg>
