<svg xmlns="http://www.w3.org/2000/svg" width="45.195" height="50.716" viewBox="0 0 45.195 50.716">
  <g id="Group_43" data-name="Group 43" transform="translate(-639.177 -540.836)">
    <g id="Group_39" data-name="Group 39" transform="translate(626.526 527.689)">
      <g id="Group_40" data-name="Group 40" transform="translate(23.181 24.1)">
        <path id="Path_38" data-name="Path 38" d="M299.671,249.736a11.247,11.247,0,1,0,11.247-11.248,11.247,11.247,0,0,0-11.247,11.248" transform="translate(-293.835 -238.488)" fill="#015c80"/>
        <path id="Subtraction_3" data-name="Subtraction 3" d="M34.166,15.7H0V10.573A10.573,10.573,0,0,1,10.574,0H23.593A10.573,10.573,0,0,1,34.166,10.573V15.7ZM11.188,1.117c-.247,0-.487.018-.719.036l2.425,12.736h8.38L23.7,1.153c-.218-.016-.466-.036-.717-.036Z" transform="translate(0 23.557)" fill="#015c80" stroke="rgba(0,0,0,0)" stroke-width="1"/>
        <path id="Path_41" data-name="Path 41" d="M403.458,568.931h5.257l-1.3-8.562h-.046l1.279-2.351h-5.117l1.279,2.351h-.045Z" transform="translate(-389.004 -531.485)" fill="#015c80"/>
      </g>
    </g>
    <g id="Group_42" data-name="Group 42" transform="translate(639.177 540.836)">
      <g id="Group_44" data-name="Group 44" transform="translate(0 0)">
        <path id="Path_42" data-name="Path 42" d="M95.913,107.4a5.785,5.785,0,1,0-11.568,0,5.912,5.912,0,0,0,3.195,5.269l-.011.111,0,.023v2.965a.973.973,0,0,0,.964.982H88.8v.023h2.652v-.023h.313a.975.975,0,0,0,.965-.982V112.8l0-.023-.011-.111a5.913,5.913,0,0,0,3.194-5.269m-9.214-.943a.207.207,0,0,1-.2.159h-.056a.206.206,0,0,1-.165-.082.21.21,0,0,1-.036-.181,4.263,4.263,0,0,1,3.274-3.152.209.209,0,0,1,.247.209v.054a.212.212,0,0,1-.168.207,3.794,3.794,0,0,0-2.9,2.786m5.657,9.424a.134.134,0,0,1-.144.124H88.045a.133.133,0,0,1-.142-.124v-.22a.134.134,0,0,1,.142-.124h4.167a.135.135,0,0,1,.144.124Zm0-1.112a.135.135,0,0,1-.144.124H88.045a.134.134,0,0,1-.142-.124v-.22a.134.134,0,0,1,.142-.124h4.167a.135.135,0,0,1,.144.124Zm0-1.113a.135.135,0,0,1-.144.125H88.045a.134.134,0,0,1-.142-.125v-.22a.134.134,0,0,1,.142-.123h4.167a.135.135,0,0,1,.144.123Z" transform="translate(-79.559 -95.746)" fill="#fff"/>
        <path id="Path_43" data-name="Path 43" d="M162.919,370.954c0,.53.45.559,1,.559h.652c.552,0,1-.029,1-.559v-.32h-2.652Z" transform="translate(-153.675 -349.605)" fill="#fff"/>
        <path id="Path_44" data-name="Path 44" d="M178.7.429V3.767a.431.431,0,0,0,.862,0V.429a.431.431,0,0,0-.862,0" transform="translate(-168.558 0.001)" fill="#fff"/>
        <path id="Path_45" data-name="Path 45" d="M.6,115.433a.43.43,0,1,0-.348.786l3.049,1.354a.43.43,0,1,0,.349-.787Z" transform="translate(0 -108.848)" fill="#fff"/>
        <path id="Path_46" data-name="Path 46" d="M305.531,115.433l-3.05,1.354a.431.431,0,1,0,.35.787l3.05-1.354a.43.43,0,1,0-.35-.786" transform="translate(-285.078 -108.848)" fill="#fff"/>
      </g>
    </g>
  </g>
</svg>
