<svg xmlns="http://www.w3.org/2000/svg" width="185.61" height="74.314" viewBox="0 0 185.61 74.314">
  <g id="Group_6" data-name="Group 6" transform="translate(3.61 2.364)">
    <path id="Path_15" data-name="Path 15" d="M6.066,67.275A22.544,22.544,0,0,0,37.737,87.87a24.788,24.788,0,0,1-11.588,3.2h-.011A26.48,26.48,0,0,1,17.524,89.4c-.005-.005-.01-.005-.016-.011a27.086,27.086,0,0,1-16-16.476A27.423,27.423,0,0,1,0,63.931a27,27,0,0,1,26.843-27.15A26.428,26.428,0,0,1,38.372,39.41a26.673,26.673,0,0,0-31.1,9.77,24.922,24.922,0,0,1,41.469,8A22.53,22.53,0,0,0,6.066,67.275" transform="translate(-3.61 -19.191)" fill="#ccf1ff"/>
    <path id="Path_16" data-name="Path 16" d="M25.265,90.864s-11.992-16.6,4.554-24.286c-5.02,3.321-10.481,25.105,12,28.149,13.869,1.878,31.46-17.408,55.885,3.311C84.776,76.469,61.367,83.065,56.175,84.931,37.407,91.673,23.487,68.76,42.1,60.645,24.764,53.8,6.888,76.362,25.265,90.864" transform="translate(-11.626 -29.532)" fill="#fff"/>
    <path id="Path_18" data-name="Path 18" d="M134.8,30.252a28.4,28.4,0,0,0-25.59-12.033C90.578-11.384,56.541.214,46.76,16.977c5.056-.711,7.166-.016,10.324,1.627C69.892,3.569,97.235,8.116,102.822,27.063c6.429-2.008,15.381-1.353,19.386,3.19Z" transform="translate(-25.003 -2.363)" fill="#fff"/>
    <text id="Cloudy" transform="translate(87 47.951)" fill="#ccf1ff" font-size="22" font-family="Rubik-ExtraBold, Rubik" font-weight="800" letter-spacing="0.025em"><tspan x="0" y="0">CLOUDY</tspan></text>
    <text id="Mattress" transform="translate(87 67.951)" fill="#fff" font-size="16" font-family="Rubik-Regular, Rubik" letter-spacing="0.124em"><tspan x="0" y="0">MATTRESS</tspan></text>
  </g>
</svg>
