<svg id="Group_114" data-name="Group 114" xmlns="http://www.w3.org/2000/svg" width="45.879" height="50" viewBox="0 0 45.879 50">
  <path id="Path_67" data-name="Path 67" d="M22.939,50a2.23,2.23,0,0,1-.4-.037,20.452,20.452,0,0,1-3.67-1.151,28.772,28.772,0,0,1-7.725-4.68A29.378,29.378,0,0,1,3.44,33.89,41.556,41.556,0,0,1,0,16.461V10.508a2.212,2.212,0,0,1,1.826-2.18,51.677,51.677,0,0,0,7.967-2.1,57.174,57.174,0,0,0,6.3-2.638A44.969,44.969,0,0,0,21.659.407a2.214,2.214,0,0,1,2.564,0,45.068,45.068,0,0,0,5.563,3.178,57.058,57.058,0,0,0,6.3,2.638,51.7,51.7,0,0,0,7.966,2.1,2.213,2.213,0,0,1,1.827,2.18v5.952a41.563,41.563,0,0,1-3.44,17.429,29.394,29.394,0,0,1-7.705,10.242,28.836,28.836,0,0,1-7.725,4.681,20.56,20.56,0,0,1-3.668,1.15,2.273,2.273,0,0,1-.4.037M3.838,11.682v5.339a36.517,36.517,0,0,0,3,15.312A25.128,25.128,0,0,0,13.428,41.1a24.542,24.542,0,0,0,6.585,3.991,17.773,17.773,0,0,0,2.927.933,17.859,17.859,0,0,0,2.926-.933A24.579,24.579,0,0,0,32.45,41.1a25.13,25.13,0,0,0,6.589-8.765,36.523,36.523,0,0,0,3-15.312V11.682a50.719,50.719,0,0,1-7.586-2.019A55.768,55.768,0,0,1,28.308,7.09a45.625,45.625,0,0,1-5.37-3.057A45.662,45.662,0,0,1,17.57,7.09a55.768,55.768,0,0,1-6.146,2.574,50.685,50.685,0,0,1-7.586,2.019" transform="translate(0 0)" fill="#015c80"/>
  <path id="Path_68" data-name="Path 68" d="M33.237,25.024a10.9,10.9,0,1,1-3.194-7.71,10.833,10.833,0,0,1,3.194,7.71" transform="translate(0.605 0.73)" fill="#de0000"/>
  <path id="Path_69" data-name="Path 69" d="M21.006,29.732a1.233,1.233,0,0,1-.876-.363l-3.384-3.383A1.239,1.239,0,1,1,18.5,24.233l2.508,2.508,4.813-4.813a1.239,1.239,0,1,1,1.752,1.752l-5.689,5.689a1.233,1.233,0,0,1-.876.363" transform="translate(0.78 0.998)" fill="#fff"/>
</svg>
