<svg id="Group_37" data-name="Group 37" xmlns="http://www.w3.org/2000/svg" width="41.749" height="50.128" viewBox="0 0 41.749 50.128">
  <path id="Path_33" data-name="Path 33" d="M70.428,20.823H51.1a.528.528,0,0,0-.528.528v4.206a1.029,1.029,0,0,0,.015.179l.644,3.731,9.243-3.744a1.078,1.078,0,0,1,.4-.076,1.06,1.06,0,0,1,.4.078l9.034,3.7.638-3.691a1.029,1.029,0,0,0,.015-.179V21.351a.528.528,0,0,0-.528-.528M56.341,23.448a.528.528,0,0,1-.528.528H52.154a.528.528,0,0,1-.528-.528V22.392a.528.528,0,0,1,.528-.528h3.659a.528.528,0,0,1,.528.528Zm6.78,0a.528.528,0,0,1-.528.528H58.932a.528.528,0,0,1-.528-.528V22.392a.528.528,0,0,1,.528-.528h3.662a.528.528,0,0,1,.528.528Zm6.778,0a.528.528,0,0,1-.528.528H65.712a.528.528,0,0,1-.528-.528V22.392a.528.528,0,0,1,.528-.528h3.659a.528.528,0,0,1,.528.528Z" transform="translate(-39.891 -16.426)" fill="#fff"/>
  <path id="Path_34" data-name="Path 34" d="M80.125,3.341H66.44L66.99.43A.528.528,0,0,1,67.509,0H79.057a.528.528,0,0,1,.519.43Z" transform="translate(-52.41)" fill="#fff"/>
  <path id="Path_35" data-name="Path 35" d="M50.111,58,44.466,82.867a4.1,4.1,0,0,1-1.77-.724,4.646,4.646,0,0,1-.46-.386c-.025-.025-.051-.051-.076-.074a2.136,2.136,0,0,0-.887-.593,1.959,1.959,0,0,0-.6-.1,2.3,2.3,0,0,0-1.5.659,4.035,4.035,0,0,1-2.31.952c-.1.006-.2.011-.3.011a3.728,3.728,0,0,1-.921-.11,3.941,3.941,0,0,1-1.2-.524,3.8,3.8,0,0,1-.549-.435,2.415,2.415,0,0,0-.815-.555,2.081,2.081,0,0,0-.752-.139,2.188,2.188,0,0,0-1.468.581,4.573,4.573,0,0,1-1.085.788,4.122,4.122,0,0,1-1.662.395l-.072.006c-.049,0-.106-.006-.154-.008l-.07,0a4.185,4.185,0,0,1-.853-.144,4.249,4.249,0,0,1-1.662-.952,2.009,2.009,0,0,0-1.337-.53c-.023,0-.044,0-.068,0a2.1,2.1,0,0,0-1.449.714,4.157,4.157,0,0,1-2.287,1.168L14.511,58a.528.528,0,0,1,.317-.606L31.357,50.7v9.7a1.056,1.056,0,1,0,2.112,0v-9.7L49.8,57.394a.528.528,0,0,1,.315.605" transform="translate(-11.436 -39.995)" fill="#015c80"/>
  <path id="Path_36" data-name="Path 36" d="M41.749,201.273a5.868,5.868,0,0,1-2.023-.138,6.105,6.105,0,0,1-1.242-.467,5.715,5.715,0,0,1-.531-.309c-.081-.053-.161-.106-.239-.163a.69.69,0,0,0-.092-.07c-.025,0-.156.153-.175.171a6.334,6.334,0,0,1-4.357,1.7,6.511,6.511,0,0,1-3.252-.88,3.627,3.627,0,0,0-.512-.33c-.1-.033-.06-.044-.146.026l-.115.091c-.088.068-.177.133-.269.2a6.793,6.793,0,0,1-7.576.065,2.373,2.373,0,0,0-.281-.2c-.092-.042-.006-.053-.122,0a.952.952,0,0,0-.124.089,6.568,6.568,0,0,1-.578.364,6.816,6.816,0,0,1-6.453.1,6.415,6.415,0,0,1-1.059-.686c-.115-.092-.113-.088-.233,0-.092.064-.186.125-.282.183q-.284.174-.584.319a6.476,6.476,0,0,1-6.165-.256,6.209,6.209,0,0,1-1.062-.813c-.033-.031-.073-.1-.115-.113-.061-.023-.033-.006-.1.022a2.181,2.181,0,0,0-.262.18,5.722,5.722,0,0,1-.6.341,5.91,5.91,0,0,1-2.466.6A6.332,6.332,0,0,1,0,201.273a6.106,6.106,0,0,0,3.674-1.824,1.214,1.214,0,0,1,.333-.315c.282-.125.484.115.685.271a5.518,5.518,0,0,0,1.934.963,5.385,5.385,0,0,0,3.349-.176,5.163,5.163,0,0,0,1.781-1.17,1.063,1.063,0,0,1,.735-.4.944.944,0,0,1,.668.264,5.335,5.335,0,0,0,2.074,1.177,5.143,5.143,0,0,0,1.072.18,2.346,2.346,0,0,0,.41.01,5.234,5.234,0,0,0,2.076-.5,5.628,5.628,0,0,0,1.336-.957,1.08,1.08,0,0,1,1.128-.237,1.5,1.5,0,0,1,.481.347,4.949,4.949,0,0,0,.685.542,5.058,5.058,0,0,0,1.523.663,4.935,4.935,0,0,0,1.556.129,5.062,5.062,0,0,0,2.921-1.2,1.081,1.081,0,0,1,1.09-.363,1.491,1.491,0,0,1,.557.424,5.6,5.6,0,0,0,.568.477,5.345,5.345,0,0,0,5.146.571,6.52,6.52,0,0,0,1.5-.922c.439-.34.735.182,1.028.46a6.115,6.115,0,0,0,3.44,1.589" transform="translate(0 -156.574)" fill="#015c80"/>
  <path id="Path_37" data-name="Path 37" d="M31.869,200.614a4.479,4.479,0,0,1-1.544-.105,4.661,4.661,0,0,1-.948-.357,4.367,4.367,0,0,1-.406-.236c-.062-.04-.123-.081-.182-.125a.529.529,0,0,0-.071-.053c-.019,0-.119.117-.134.131a4.835,4.835,0,0,1-3.326,1.3,4.97,4.97,0,0,1-2.482-.672,2.768,2.768,0,0,0-.391-.252c-.074-.025-.046-.034-.112.02l-.088.069c-.067.052-.135.1-.205.15a5.185,5.185,0,0,1-5.783.05,1.81,1.81,0,0,0-.215-.15c-.07-.032,0-.04-.093,0a.725.725,0,0,0-.094.068,5.014,5.014,0,0,1-.441.278,5.2,5.2,0,0,1-4.926.08,4.9,4.9,0,0,1-.809-.523c-.088-.07-.086-.067-.178,0-.07.049-.142.1-.215.14q-.217.132-.446.244a4.943,4.943,0,0,1-4.706-.2,4.739,4.739,0,0,1-.811-.62c-.025-.024-.056-.074-.088-.086s-.025,0-.074.017a1.666,1.666,0,0,0-.2.137,4.366,4.366,0,0,1-.459.261,4.511,4.511,0,0,1-1.882.461A4.829,4.829,0,0,1,0,200.614a4.661,4.661,0,0,0,2.8-1.393.926.926,0,0,1,.254-.24c.215-.1.37.088.523.207a4.213,4.213,0,0,0,1.476.735,4.11,4.11,0,0,0,2.557-.134,3.941,3.941,0,0,0,1.36-.893.812.812,0,0,1,.561-.307.721.721,0,0,1,.51.2,4.073,4.073,0,0,0,1.583.9,3.925,3.925,0,0,0,.819.137,1.791,1.791,0,0,0,.313.007,4,4,0,0,0,1.585-.382,4.3,4.3,0,0,0,1.02-.73.824.824,0,0,1,.861-.181,1.148,1.148,0,0,1,.368.265,3.777,3.777,0,0,0,.523.413,3.861,3.861,0,0,0,1.163.506,3.767,3.767,0,0,0,1.188.1,3.864,3.864,0,0,0,2.23-.917.825.825,0,0,1,.832-.277,1.138,1.138,0,0,1,.425.323,4.273,4.273,0,0,0,.434.364,4.08,4.08,0,0,0,3.928.436,4.976,4.976,0,0,0,1.143-.7c.335-.26.561.139.785.351a4.668,4.668,0,0,0,2.626,1.213" transform="translate(4.94 -151.263)" fill="#015c80"/>
</svg>
