<svg id="Group_103" data-name="Group 103" xmlns="http://www.w3.org/2000/svg" width="99.737" height="50" viewBox="0 0 99.737 50">
  <g id="Group_111" data-name="Group 111">
    <path id="Path_54" data-name="Path 54" d="M99.735,21.382a2.071,2.071,0,0,0-.289-1.078l-1.806-3.04L91.768,7.379a2.074,2.074,0,0,0-1.783-1.015H79.7V2.075A2.075,2.075,0,0,0,77.625,0H34.366a2.075,2.075,0,0,0,0,4.149H75.55V8.438l0,.018V21.363a2.075,2.075,0,0,0,2.074,2.075H95.586l0,14.923H86.917a9.751,9.751,0,0,0-19.134,0h-6.31a9.752,9.752,0,0,0-19.135,0H34.366a2.074,2.074,0,1,0,0,4.148h8.054a9.75,9.75,0,0,0,18.969,0h6.475a9.75,9.75,0,0,0,18.969,0H97.663a2.073,2.073,0,0,0,2.074-2.074ZM51.9,45.851a5.6,5.6,0,1,1,5.589-5.883,2.044,2.044,0,0,0-.058.468,2.079,2.079,0,0,0,.04.4A5.611,5.611,0,0,1,51.9,45.851m25.445,0a5.6,5.6,0,1,1,5.6-5.6,5.609,5.609,0,0,1-5.6,5.6M79.7,10.513h9.1l5.213,8.776H79.7Zm-67.56,1.072a1.92,1.92,0,0,1,1.92-1.92h17.25a1.92,1.92,0,0,1,0,3.839H14.061a1.92,1.92,0,0,1-1.92-1.92M35.68,22.954H1.92a1.92,1.92,0,1,1,0-3.839H35.68a1.92,1.92,0,1,1,0,3.839M25.371,32.4H9.963a1.92,1.92,0,0,1,0-3.84H25.371a1.92,1.92,0,0,1,0,3.84" fill="#015c80"/>
    <path id="Path_55" data-name="Path 55" d="M37.175,24.2a.327.327,0,0,1-.229-.095.31.31,0,0,1-.1-.235V15.624a.307.307,0,0,1,.1-.235.321.321,0,0,1,.229-.1h6.132a.337.337,0,0,1,.242.1.307.307,0,0,1,.1.235v1.615a.32.32,0,0,1-.1.23.333.333,0,0,1-.242.1H39.529v1.4h3.524a.341.341,0,0,1,.242.1.309.309,0,0,1,.1.235v1.6a.309.309,0,0,1-.1.236.346.346,0,0,1-.242.1H39.529v2.634a.326.326,0,0,1-.331.33Z" transform="translate(2.593 1.232)" fill="#de0000"/>
    <path id="Path_56" data-name="Path 56" d="M45.216,24.2a.329.329,0,0,1-.229-.095.31.31,0,0,1-.1-.235V15.624a.308.308,0,0,1,.1-.235.325.325,0,0,1,.229-.1h3.626a4.237,4.237,0,0,1,2.717.789,2.661,2.661,0,0,1,.985,2.2,2.712,2.712,0,0,1-.406,1.514,2.9,2.9,0,0,1-1.069.98l1.654,3a.328.328,0,0,1,.038.141.277.277,0,0,1-.076.2.247.247,0,0,1-.191.083h-2.15a.511.511,0,0,1-.369-.121.638.638,0,0,1-.166-.222l-1.272-2.621h-.916v2.634a.326.326,0,0,1-.331.33Zm2.4-5.064h1.208a.831.831,0,0,0,.662-.247.91.91,0,0,0,.216-.618,1.024,1.024,0,0,0-.209-.649.8.8,0,0,0-.669-.267H47.621Z" transform="translate(3.198 1.232)" fill="#de0000"/>
    <path id="Path_57" data-name="Path 57" d="M54.212,24.2a.327.327,0,0,1-.229-.095.31.31,0,0,1-.1-.235V15.624a.307.307,0,0,1,.1-.235.321.321,0,0,1,.229-.1h6.234a.337.337,0,0,1,.242.1.307.307,0,0,1,.1.235v1.5a.316.316,0,0,1-.1.229.329.329,0,0,1-.242.1H56.515v1.26h3.651a.342.342,0,0,1,.242.1.307.307,0,0,1,.1.235V20.42a.31.31,0,0,1-.1.236.345.345,0,0,1-.242.095H56.515v1.285h4.033a.333.333,0,0,1,.242.1.339.339,0,0,1,.1.243v1.489a.313.313,0,0,1-.1.235.343.343,0,0,1-.242.095Z" transform="translate(3.801 1.232)" fill="#de0000"/>
    <path id="Path_58" data-name="Path 58" d="M62.52,24.2a.327.327,0,0,1-.229-.095.31.31,0,0,1-.1-.235V15.624a.307.307,0,0,1,.1-.235.321.321,0,0,1,.229-.1h6.234a.338.338,0,0,1,.242.1.307.307,0,0,1,.1.235v1.5a.316.316,0,0,1-.1.229.33.33,0,0,1-.242.1H64.823v1.26h3.651a.342.342,0,0,1,.242.1.307.307,0,0,1,.1.235V20.42a.31.31,0,0,1-.1.236.345.345,0,0,1-.242.095H64.823v1.285h4.033a.334.334,0,0,1,.242.1.339.339,0,0,1,.1.243v1.489a.313.313,0,0,1-.1.235.345.345,0,0,1-.242.095Z" transform="translate(4.387 1.232)" fill="#de0000"/>
  </g>
</svg>
