<svg xmlns="http://www.w3.org/2000/svg" width="56.469" height="56.894" viewBox="0 0 56.469 56.894">
  <g id="Group_35" data-name="Group 35" transform="translate(-494 -549.106)">
    <path id="Subtraction_2" data-name="Subtraction 2" d="M23.743,64A23.855,23.855,0,0,1,6.954,57.153a23.286,23.286,0,0,1-5.088-7.432A23.108,23.108,0,0,1,3.634,28.185a23.7,23.7,0,0,1,9.455-8.464A23.012,23.012,0,0,0,9.071,32.739a23.819,23.819,0,0,0,34.4,20.9A23.783,23.783,0,0,1,29.693,63.26,24.178,24.178,0,0,1,23.743,64Z" transform="translate(507 529.385)" fill="#015c80"/>
    <path id="Union_2" data-name="Union 2" d="M11.439,10.912a1.555,1.555,0,0,1-2.5.05,3.126,3.126,0,0,1-1.877.609A2.915,2.915,0,0,1,4.336,9.9q-.141-.045-.273-.091a5.4,5.4,0,0,1-1.08-.251,2.175,2.175,0,0,1-1.115.3A1.715,1.715,0,0,1,0,8.357a1.322,1.322,0,0,1,.4-.931A3.556,3.556,0,0,1,0,5.786C0,3.537,2.137,1.714,4.774,1.714a5.569,5.569,0,0,1,1.167.123A5.241,5.241,0,0,1,10.17,0a5.147,5.147,0,0,1,4.325,1.976,3.206,3.206,0,0,1,1.279-.262,2.983,2.983,0,0,1,2.538,1.318A2.133,2.133,0,0,1,18.679,3a1.509,1.509,0,0,1,1.66,1.286,1.018,1.018,0,0,1-.064.354A2.781,2.781,0,0,1,22,6.857c0,1.382-1.733,2.574-4.23,3.116A3.456,3.456,0,0,1,14.321,12,4.038,4.038,0,0,1,11.439,10.912Z" transform="translate(549 606) rotate(180)" fill="#fff"/>
    <path id="Union_1" data-name="Union 1" d="M12.777,12.5a1.748,1.748,0,0,1-1.248.5,1.676,1.676,0,0,1-1.493-.834A5.376,5.376,0,0,1,7.059,13c-1.925,0-3.551-.876-4.065-2.076a2.574,2.574,0,0,1-.876.151A1.939,1.939,0,0,1,0,9.389,1.479,1.479,0,0,1,.457,8.343,3.966,3.966,0,0,1,0,6.5,4.5,4.5,0,0,1,2.666,2.557C3.413,1.067,5.414,0,7.765,0a5.968,5.968,0,0,1,4.791,2.059,3.581,3.581,0,0,1,2.032-.615,3.257,3.257,0,0,1,3.176,2.12,7.753,7.753,0,0,1,1.765-.193c1.949,0,3.529.647,3.529,1.444a.654.654,0,0,1-.084.314A3.759,3.759,0,0,1,24,7.7a3.928,3.928,0,0,1-4,3.852,4.169,4.169,0,0,1-.771-.072A5.192,5.192,0,0,1,15.294,13,6.284,6.284,0,0,1,12.777,12.5Z" transform="translate(494 568)" fill="#fff"/>
  </g>
</svg>
